<?xml version="1.0" standalone="no"?>
<!DOCTYPE svg PUBLIC "-//W3C//DTD SVG 20010904//EN"
 "http://www.w3.org/TR/2001/REC-SVG-20010904/DTD/svg10.dtd">
<svg version="1.0" xmlns="http://www.w3.org/2000/svg"
 width="512.000000pt" height="512.000000pt" viewBox="0 0 512.000000 512.000000"
 preserveAspectRatio="xMidYMid meet">
<metadata>
Created by potrace 1.11, written by Peter Selinger 2001-2013
</metadata>
<g transform="translate(0.000000,512.000000) scale(0.100000,-0.100000)"
fill="#000000" stroke="none">
<path d="M2433 5010 c-86 -20 -105 -30 -343 -166 -224 -127 -279 -159 -335
-189 -22 -12 -71 -41 -109 -64 -37 -22 -70 -41 -71 -41 -2 0 -54 -29 -116 -65
-61 -36 -113 -65 -114 -65 -2 0 -85 -47 -185 -105 -99 -58 -183 -105 -185
-105 -2 0 -38 -20 -79 -45 -42 -25 -79 -45 -81 -45 -19 0 -110 -80 -125 -111
-25 -48 -25 -80 0 -128 26 -52 49 -69 385 -278 810 -503 960 -598 963 -605 2
-4 8 -8 12 -8 9 0 241 -139 250 -150 8 -10 104 -49 136 -55 111 -22 237 -12
321 25 34 15 189 108 383 230 22 14 94 59 160 100 67 41 135 84 153 95 18 11
47 29 65 40 34 20 98 60 222 140 71 45 264 164 292 180 55 30 309 193 342 219
41 31 75 94 76 136 0 29 -31 85 -66 118 -13 12 -25 22 -28 22 -2 0 -37 19 -78
43 -40 24 -98 57 -128 74 -75 41 -338 191 -375 214 -16 10 -37 22 -45 26 -8 3
-87 48 -175 98 -604 345 -769 437 -804 449 -87 31 -225 38 -318 16z m91 -507
c47 -62 86 -117 86 -123 0 -5 -11 -11 -25 -11 -14 -1 -28 -2 -32 -3 -5 -1 -23
-6 -42 -10 -58 -14 -147 -66 -197 -114 -81 -80 -93 -146 -33 -177 27 -15 35
-15 84 0 29 8 98 40 152 71 294 167 440 186 621 79 127 -74 197 -179 206 -308
4 -48 -13 -137 -34 -184 l-19 -43 65 -46 c35 -25 64 -49 64 -54 0 -4 -33 -29
-72 -55 -70 -45 -74 -46 -98 -31 -14 8 -24 20 -22 26 1 7 -2 9 -8 5 -6 -4 -21
0 -34 9 -22 14 -25 13 -47 -11 -36 -38 -127 -97 -233 -152 l-94 -48 -36 21
c-20 11 -86 52 -146 90 l-110 69 122 61 c190 95 280 158 323 226 39 61 37 99
-6 124 -44 26 -98 15 -210 -45 -251 -133 -333 -163 -449 -161 -159 1 -358 137
-396 270 -29 99 -22 213 18 299 23 50 29 41 -64 105 -26 18 -48 36 -48 40 0 7
34 29 111 71 l46 25 53 -34 c30 -19 58 -34 62 -34 5 0 32 16 60 36 81 55 263
138 290 131 3 -1 45 -52 92 -114z"/>
<path d="M595 3704 c-5 -1 -23 -5 -38 -9 -34 -7 -73 -47 -93 -94 -22 -52 -21
-2027 1 -2120 27 -114 115 -262 196 -331 17 -14 114 -78 217 -142 103 -64 212
-132 242 -151 63 -40 425 -264 845 -523 160 -99 303 -185 318 -192 38 -16 102
-15 136 2 29 16 61 57 71 91 3 11 5 488 5 1060 0 980 -1 1043 -18 1090 -45
123 -120 237 -201 303 -33 27 -286 188 -444 283 -15 9 -277 171 -582 361 -305
189 -568 349 -585 355 -46 17 -59 20 -70 17z m830 -959 c77 -21 205 -84 277
-138 93 -70 228 -205 228 -228 0 -7 -18 -70 -41 -140 l-41 -128 -65 64 c-113
111 -240 180 -307 168 -31 -6 -72 -56 -78 -93 -3 -21 9 -31 82 -78 47 -29 92
-56 100 -60 8 -4 43 -25 78 -47 l62 -40 0 -107 c0 -60 -4 -108 -9 -108 -5 0
-62 34 -128 75 -65 41 -137 85 -161 99 l-43 25 3 -50 c3 -50 3 -51 63 -84 33
-19 59 -39 57 -45 -1 -6 2 -9 8 -5 5 3 42 -13 80 -37 l70 -43 0 -113 0 -114
-37 23 c-21 12 -52 33 -70 46 -17 12 -35 23 -38 23 -4 0 -27 14 -51 31 -25 17
-48 28 -51 25 -12 -11 20 -96 58 -154 36 -55 60 -80 131 -137 79 -64 225 -131
291 -134 15 -1 17 -16 17 -179 0 -98 -3 -181 -6 -184 -12 -13 -152 42 -219 84
-142 91 -173 116 -285 228 -132 131 -251 317 -305 475 -25 74 -64 225 -57 225
3 0 -2 8 -11 18 -10 10 -14 22 -10 27 5 4 2 5 -5 1 -7 -4 -38 9 -72 30 l-60
37 0 109 0 109 23 -12 c12 -7 39 -23 59 -36 21 -12 40 -23 43 -23 3 0 5 20 5
45 0 44 0 45 -65 82 l-65 37 0 108 c0 59 2 108 4 108 8 0 79 -42 105 -62 30
-23 36 -18 50 38 30 118 103 209 196 242 44 15 123 14 190 -3z"/>
<path d="M4425 3674 c-27 -14 -72 -40 -100 -58 -27 -18 -144 -91 -260 -163
-115 -71 -343 -212 -505 -313 -162 -101 -300 -183 -307 -183 -7 0 -10 -3 -8
-6 2 -4 -85 -60 -192 -126 -258 -159 -326 -229 -400 -418 l-28 -72 0 -1045 c0
-1010 1 -1046 19 -1084 28 -56 68 -78 136 -73 46 3 70 13 150 61 52 33 115 70
138 85 24 14 56 34 70 43 15 10 43 27 62 38 19 11 51 30 71 43 19 12 143 89
275 171 131 82 385 241 564 352 179 111 344 221 368 244 82 81 152 205 180
320 15 60 17 2049 2 2101 -6 20 -23 51 -39 70 -25 29 -36 33 -87 36 -49 3 -68
-1 -109 -23z m-314 -861 c-12 -54 -24 -108 -26 -120 -3 -13 -7 -33 -10 -45 -2
-13 -7 -36 -11 -53 -11 -58 -15 -65 -39 -65 -42 0 -151 -39 -194 -71 -64 -46
-84 -99 -83 -222 1 -55 4 -102 7 -105 3 -3 13 2 22 10 28 23 254 161 258 156
2 -2 5 -73 7 -157 l3 -154 -118 -74 c-65 -40 -122 -73 -126 -73 -4 0 -15 -8
-24 -18 -12 -13 -16 -41 -18 -107 -2 -132 -28 -213 -100 -323 -19 -29 -6 -23
137 64 273 167 399 242 401 240 1 0 3 -84 6 -186 l4 -184 -81 -50 c-45 -27
-138 -84 -209 -127 -70 -44 -131 -79 -136 -79 -5 0 -14 -7 -21 -15 -7 -9 -20
-13 -29 -10 -8 3 -12 3 -8 -1 4 -4 -14 -21 -40 -38 -141 -87 -356 -216 -362
-216 -3 0 -8 81 -9 180 -3 178 -3 181 22 213 38 51 82 138 91 182 4 22 9 86
10 143 l2 102 -46 -26 c-25 -15 -55 -33 -66 -41 -11 -7 -22 -13 -25 -13 -4 0
-7 72 -9 160 -2 135 0 160 13 160 8 0 16 3 18 8 2 4 26 22 54 40 l51 32 -2
118 c-1 65 2 150 7 188 13 95 61 236 110 318 103 175 307 317 518 361 30 7 59
9 64 4 4 -4 -1 -51 -13 -106z"/>
</g>
</svg>
